<svg width="76" height="32" viewBox="0 0 76 32" fill="none" xmlns="http://www.w3.org/2000/svg">
<circle cx="3" cy="3" r="2.5" transform="matrix(1 0 0 -1 14.8 30)" fill="black" stroke="black"/>
<circle cx="3" cy="3" r="2.5" transform="matrix(1 0 0 -1 3.5 18)" fill="black" stroke="black"/>
<circle cx="3" cy="3" r="2.5" transform="matrix(1 0 0 -1 14.8 7)" fill="black" stroke="black"/>
<path d="M7 15.5L18 4.5V27.5L7 15.5Z" stroke="black" stroke-linejoin="round"/>
<path d="M38.4176 13.6562H34.6847C34.6165 13.1733 34.4773 12.7443 34.267 12.3693C34.0568 11.9886 33.7869 11.6648 33.4574 11.3977C33.1278 11.1307 32.7472 10.9261 32.3153 10.7841C31.8892 10.642 31.4261 10.571 30.9261 10.571C30.0227 10.571 29.2358 10.7955 28.5653 11.2443C27.8949 11.6875 27.375 12.3352 27.0057 13.1875C26.6364 14.0341 26.4517 15.0625 26.4517 16.2727C26.4517 17.517 26.6364 18.5625 27.0057 19.4091C27.3807 20.2557 27.9034 20.8949 28.5739 21.3267C29.2443 21.7585 30.0199 21.9744 30.9006 21.9744C31.3949 21.9744 31.8523 21.9091 32.2727 21.7784C32.6989 21.6477 33.0767 21.4574 33.4062 21.2074C33.7358 20.9517 34.0085 20.642 34.2244 20.2784C34.446 19.9148 34.5994 19.5 34.6847 19.0341L38.4176 19.0511C38.321 19.8523 38.0795 20.625 37.6932 21.3693C37.3125 22.108 36.7983 22.7699 36.1506 23.3551C35.5085 23.9347 34.7415 24.3949 33.8494 24.7358C32.9631 25.071 31.9602 25.2386 30.8409 25.2386C29.2841 25.2386 27.892 24.8864 26.6648 24.1818C25.4432 23.4773 24.4773 22.4574 23.767 21.1222C23.0625 19.7869 22.7102 18.1705 22.7102 16.2727C22.7102 14.3693 23.0682 12.75 23.7841 11.4148C24.5 10.0795 25.4716 9.0625 26.6989 8.36364C27.9261 7.65909 29.3068 7.30682 30.8409 7.30682C31.8523 7.30682 32.7898 7.44886 33.6534 7.73295C34.5227 8.01705 35.2926 8.43182 35.9631 8.97727C36.6335 9.51704 37.179 10.179 37.5994 10.9631C38.0256 11.7472 38.2983 12.6449 38.4176 13.6562ZM45.8114 25H39.6239V7.54545H45.8626C47.6182 7.54545 49.1296 7.89489 50.3966 8.59375C51.6637 9.28693 52.6381 10.2841 53.3199 11.5852C54.0074 12.8864 54.3512 14.4432 54.3512 16.2557C54.3512 18.0739 54.0074 19.6364 53.3199 20.9432C52.6381 22.25 51.658 23.2528 50.3796 23.9517C49.1069 24.6506 47.5841 25 45.8114 25ZM43.3143 21.8381H45.658C46.7489 21.8381 47.6665 21.6449 48.4109 21.2585C49.1609 20.8665 49.7234 20.2614 50.0984 19.4432C50.479 18.6193 50.6694 17.5568 50.6694 16.2557C50.6694 14.9659 50.479 13.9119 50.0984 13.0938C49.7234 12.2756 49.1637 11.6733 48.4194 11.2869C47.6751 10.9006 46.7574 10.7074 45.6665 10.7074H43.3143V21.8381ZM61.8324 25H55.6449V7.54545H61.8835C63.6392 7.54545 65.1505 7.89489 66.4176 8.59375C67.6846 9.28693 68.6591 10.2841 69.3409 11.5852C70.0284 12.8864 70.3721 14.4432 70.3721 16.2557C70.3721 18.0739 70.0284 19.6364 69.3409 20.9432C68.6591 22.25 67.6789 23.2528 66.4005 23.9517C65.1278 24.6506 63.6051 25 61.8324 25ZM59.3352 21.8381H61.6789C62.7699 21.8381 63.6875 21.6449 64.4318 21.2585C65.1818 20.8665 65.7443 20.2614 66.1193 19.4432C66.5 18.6193 66.6903 17.5568 66.6903 16.2557C66.6903 14.9659 66.5 13.9119 66.1193 13.0938C65.7443 12.2756 65.1846 11.6733 64.4403 11.2869C63.696 10.9006 62.7784 10.7074 61.6875 10.7074H59.3352V21.8381Z" fill="black"/>
</svg>
