<svg width="76" height="32" viewBox="0 0 76 32" fill="none" xmlns="http://www.w3.org/2000/svg">
<circle cx="2.5" cy="2.5" r="2" transform="matrix(1 0 0 -1 15 30)" fill="white" stroke="black"/>
<circle cx="2.5" cy="2.5" r="2" transform="matrix(1 0 0 -1 4 18)" fill="white" stroke="black"/>
<circle cx="2.5" cy="2.5" r="2" transform="matrix(1 0 0 -1 15 7)" fill="white" stroke="black"/>
<path d="M6.5 15.5L17.5 4.5V27.5L6.5 15.5Z" stroke="white" stroke-linejoin="round"/>
<path d="M37.9176 13.6562H34.1847C34.1165 13.1733 33.9773 12.7443 33.767 12.3693C33.5568 11.9886 33.2869 11.6648 32.9574 11.3977C32.6278 11.1307 32.2472 10.9261 31.8153 10.7841C31.3892 10.642 30.9261 10.571 30.4261 10.571C29.5227 10.571 28.7358 10.7955 28.0653 11.2443C27.3949 11.6875 26.875 12.3352 26.5057 13.1875C26.1364 14.0341 25.9517 15.0625 25.9517 16.2727C25.9517 17.517 26.1364 18.5625 26.5057 19.4091C26.8807 20.2557 27.4034 20.8949 28.0739 21.3267C28.7443 21.7585 29.5199 21.9744 30.4006 21.9744C30.8949 21.9744 31.3523 21.9091 31.7727 21.7784C32.1989 21.6477 32.5767 21.4574 32.9062 21.2074C33.2358 20.9517 33.5085 20.642 33.7244 20.2784C33.946 19.9148 34.0994 19.5 34.1847 19.0341L37.9176 19.0511C37.821 19.8523 37.5795 20.625 37.1932 21.3693C36.8125 22.108 36.2983 22.7699 35.6506 23.3551C35.0085 23.9347 34.2415 24.3949 33.3494 24.7358C32.4631 25.071 31.4602 25.2386 30.3409 25.2386C28.7841 25.2386 27.392 24.8864 26.1648 24.1818C24.9432 23.4773 23.9773 22.4574 23.267 21.1222C22.5625 19.7869 22.2102 18.1705 22.2102 16.2727C22.2102 14.3693 22.5682 12.75 23.2841 11.4148C24 10.0795 24.9716 9.0625 26.1989 8.36364C27.4261 7.65909 28.8068 7.30682 30.3409 7.30682C31.3523 7.30682 32.2898 7.44886 33.1534 7.73295C34.0227 8.01705 34.7926 8.43182 35.4631 8.97727C36.1335 9.51704 36.679 10.179 37.0994 10.9631C37.5256 11.7472 37.7983 12.6449 37.9176 13.6562ZM45.3114 25H39.1239V7.54545H45.3626C47.1182 7.54545 48.6296 7.89489 49.8966 8.59375C51.1637 9.28693 52.1381 10.2841 52.8199 11.5852C53.5074 12.8864 53.8512 14.4432 53.8512 16.2557C53.8512 18.0739 53.5074 19.6364 52.8199 20.9432C52.1381 22.25 51.158 23.2528 49.8796 23.9517C48.6069 24.6506 47.0841 25 45.3114 25ZM42.8143 21.8381H45.158C46.2489 21.8381 47.1665 21.6449 47.9109 21.2585C48.6609 20.8665 49.2234 20.2614 49.5984 19.4432C49.979 18.6193 50.1694 17.5568 50.1694 16.2557C50.1694 14.9659 49.979 13.9119 49.5984 13.0938C49.2234 12.2756 48.6637 11.6733 47.9194 11.2869C47.1751 10.9006 46.2574 10.7074 45.1665 10.7074H42.8143V21.8381ZM61.3324 25H55.1449V7.54545H61.3835C63.1392 7.54545 64.6505 7.89489 65.9176 8.59375C67.1846 9.28693 68.1591 10.2841 68.8409 11.5852C69.5284 12.8864 69.8721 14.4432 69.8721 16.2557C69.8721 18.0739 69.5284 19.6364 68.8409 20.9432C68.1591 22.25 67.1789 23.2528 65.9005 23.9517C64.6278 24.6506 63.1051 25 61.3324 25ZM58.8352 21.8381H61.1789C62.2699 21.8381 63.1875 21.6449 63.9318 21.2585C64.6818 20.8665 65.2443 20.2614 65.6193 19.4432C66 18.6193 66.1903 17.5568 66.1903 16.2557C66.1903 14.9659 66 13.9119 65.6193 13.0938C65.2443 12.2756 64.6846 11.6733 63.9403 11.2869C63.196 10.9006 62.2784 10.7074 61.1875 10.7074H58.8352V21.8381Z" fill="white"/>
</svg>
