<svg width="76" height="32" viewBox="0 0 76 32" fill="none" xmlns="http://www.w3.org/2000/svg">
<circle cx="4" cy="4" r="3.5" transform="matrix(1 0 0 -1 14 31)" fill="white" stroke="white"/>
<circle cx="4" cy="4" r="3.5" transform="matrix(1 0 0 -1 3 20)" fill="white" stroke="white"/>
<circle cx="4" cy="4" r="3.5" transform="matrix(1 0 0 -1 14 8)" fill="white" stroke="white"/>
<path d="M7.5 15.5L18.5 4.5V27.5L7.5 15.5Z" stroke="white" stroke-linejoin="round"/>
<path d="M38.9176 13.6562H35.1847C35.1165 13.1733 34.9773 12.7443 34.767 12.3693C34.5568 11.9886 34.2869 11.6648 33.9574 11.3977C33.6278 11.1307 33.2472 10.9261 32.8153 10.7841C32.3892 10.642 31.9261 10.571 31.4261 10.571C30.5227 10.571 29.7358 10.7955 29.0653 11.2443C28.3949 11.6875 27.875 12.3352 27.5057 13.1875C27.1364 14.0341 26.9517 15.0625 26.9517 16.2727C26.9517 17.517 27.1364 18.5625 27.5057 19.4091C27.8807 20.2557 28.4034 20.8949 29.0739 21.3267C29.7443 21.7585 30.5199 21.9744 31.4006 21.9744C31.8949 21.9744 32.3523 21.9091 32.7727 21.7784C33.1989 21.6477 33.5767 21.4574 33.9062 21.2074C34.2358 20.9517 34.5085 20.642 34.7244 20.2784C34.946 19.9148 35.0994 19.5 35.1847 19.0341L38.9176 19.0511C38.821 19.8523 38.5795 20.625 38.1932 21.3693C37.8125 22.108 37.2983 22.7699 36.6506 23.3551C36.0085 23.9347 35.2415 24.3949 34.3494 24.7358C33.4631 25.071 32.4602 25.2386 31.3409 25.2386C29.7841 25.2386 28.392 24.8864 27.1648 24.1818C25.9432 23.4773 24.9773 22.4574 24.267 21.1222C23.5625 19.7869 23.2102 18.1705 23.2102 16.2727C23.2102 14.3693 23.5682 12.75 24.2841 11.4148C25 10.0795 25.9716 9.0625 27.1989 8.36364C28.4261 7.65909 29.8068 7.30682 31.3409 7.30682C32.3523 7.30682 33.2898 7.44886 34.1534 7.73295C35.0227 8.01705 35.7926 8.43182 36.4631 8.97727C37.1335 9.51704 37.679 10.179 38.0994 10.9631C38.5256 11.7472 38.7983 12.6449 38.9176 13.6562ZM46.3114 25H40.1239V7.54545H46.3626C48.1182 7.54545 49.6296 7.89489 50.8966 8.59375C52.1637 9.28693 53.1381 10.2841 53.8199 11.5852C54.5074 12.8864 54.8512 14.4432 54.8512 16.2557C54.8512 18.0739 54.5074 19.6364 53.8199 20.9432C53.1381 22.25 52.158 23.2528 50.8796 23.9517C49.6069 24.6506 48.0841 25 46.3114 25ZM43.8143 21.8381H46.158C47.2489 21.8381 48.1665 21.6449 48.9109 21.2585C49.6609 20.8665 50.2234 20.2614 50.5984 19.4432C50.979 18.6193 51.1694 17.5568 51.1694 16.2557C51.1694 14.9659 50.979 13.9119 50.5984 13.0938C50.2234 12.2756 49.6637 11.6733 48.9194 11.2869C48.1751 10.9006 47.2574 10.7074 46.1665 10.7074H43.8143V21.8381ZM62.3324 25H56.1449V7.54545H62.3835C64.1392 7.54545 65.6505 7.89489 66.9176 8.59375C68.1846 9.28693 69.1591 10.2841 69.8409 11.5852C70.5284 12.8864 70.8721 14.4432 70.8721 16.2557C70.8721 18.0739 70.5284 19.6364 69.8409 20.9432C69.1591 22.25 68.1789 23.2528 66.9005 23.9517C65.6278 24.6506 64.1051 25 62.3324 25ZM59.8352 21.8381H62.1789C63.2699 21.8381 64.1875 21.6449 64.9318 21.2585C65.6818 20.8665 66.2443 20.2614 66.6193 19.4432C67 18.6193 67.1903 17.5568 67.1903 16.2557C67.1903 14.9659 67 13.9119 66.6193 13.0938C66.2443 12.2756 65.6846 11.6733 64.9403 11.2869C64.196 10.9006 63.2784 10.7074 62.1875 10.7074H59.8352V21.8381Z" fill="white"/>
</svg>
